HIERARCHY
ROOT Hips
{
	OFFSET 0.000000 71.427986 0.000000
	CHANNELS 6 Xposition Yposition Zposition Xrotation Yrotation Zrotation
	JOINT Pelvis
	{
		OFFSET 0.000000 0.000000 0.000000
		CHANNELS 3 Xrotation Yrotation Zrotation
		JOINT LeftUpLeg
		{
			OFFSET 6.797100 -2.508499 -1.318700
			CHANNELS 3 Xrotation Yrotation Zrotation
			JOINT LeftLeg
			{
				OFFSET 0.069008 -29.241863 0.690200
				CHANNELS 3 Xrotation Yrotation Zrotation
				JOINT LeftFoot
				{
					OFFSET -0.069008 -29.568123 -0.266800
					CHANNELS 3 Xrotation Yrotation Zrotation
					JOINT LeftToeBase
					{
						OFFSET 3.145500 -8.631000 16.059900
						CHANNELS 3 Xrotation Yrotation Zrotation
						End Site
						{
							OFFSET 0.000000 18.501587 0.000000
						}
					}
				}
			}
			JOINT Left_ShortSleeve
			{
				OFFSET 0.265923 -10.480953 1.153800
				CHANNELS 3 Xrotation Yrotation Zrotation
				End Site
				{
					OFFSET 1.725763 19.823879 0.000000
				}
			}
		}
		JOINT RightUpLeg
		{
			OFFSET -6.797100 -2.508499 -1.318700
			CHANNELS 3 Xrotation Yrotation Zrotation
			JOINT RightLeg
			{
				OFFSET -0.082453 -29.241932 0.688000
				CHANNELS 3 Xrotation Yrotation Zrotation
				JOINT RightFoot
				{
					OFFSET 0.082453 -29.568058 -0.264600
					CHANNELS 3 Xrotation Yrotation Zrotation
					JOINT RightToeBase
					{
						OFFSET -3.115300 -8.682800 16.113400
						CHANNELS 3 Xrotation Yrotation Zrotation
						End Site
						{
							OFFSET 0.000000 18.567114 0.000000
						}
					}
				}
			}
			JOINT Right_ShortSleeve
			{
				OFFSET -0.265923 -10.480953 1.153800
				CHANNELS 3 Xrotation Yrotation Zrotation
				End Site
				{
					OFFSET -1.725766 19.823910 0.000000
				}
			}
		}
	}
	JOINT Spine
	{
		OFFSET 0.000000 13.368103 0.470500
		CHANNELS 3 Xrotation Yrotation Zrotation
		JOINT Spine1
		{
			OFFSET 0.147000 13.837402 0.538800
			CHANNELS 3 Xrotation Yrotation Zrotation
			JOINT Spine2
			{
				OFFSET 0.168000 16.242897 -1.435500
				CHANNELS 3 Xrotation Yrotation Zrotation
				JOINT Neck
				{
					OFFSET 0.217200 18.631500 -1.679100
					CHANNELS 3 Xrotation Yrotation Zrotation
					JOINT Head
					{
						OFFSET 0.000000 6.599396 1.385900
						CHANNELS 3 Xrotation Yrotation Zrotation
						JOINT Hat
						{
							OFFSET -0.532200 27.220596 -10.096100
							CHANNELS 3 Xrotation Yrotation Zrotation
							End Site
							{
								OFFSET 0.000000 22.029861 0.000000
							}
						}
						JOINT HairD
						{
							OFFSET -10.777400 17.437393 -1.325900
							CHANNELS 3 Xrotation Yrotation Zrotation
							JOINT HairD1
							{
								OFFSET -3.290299 -11.051193 1.062200
								CHANNELS 3 Xrotation Yrotation Zrotation
								End Site
								{
									OFFSET 0.000000 11.579437 0.000000
								}
							}
						}
						JOINT HairB
						{
							OFFSET -10.777400 17.437393 1.467900
							CHANNELS 3 Xrotation Yrotation Zrotation
							JOINT HairB1
							{
								OFFSET -1.561200 -12.956299 3.590200
								CHANNELS 3 Xrotation Yrotation Zrotation
								End Site
								{
									OFFSET 0.000000 13.534866 0.000000
								}
							}
						}
						JOINT HairA
						{
							OFFSET 9.713100 17.437393 1.467900
							CHANNELS 3 Xrotation Yrotation Zrotation
							JOINT HairA1
							{
								OFFSET 1.561200 -12.956299 3.590200
								CHANNELS 3 Xrotation Yrotation Zrotation
								End Site
								{
									OFFSET 0.000000 13.534866 0.000000
								}
							}
						}
						JOINT HairC
						{
							OFFSET 9.713100 17.437393 -1.325900
							CHANNELS 3 Xrotation Yrotation Zrotation
							JOINT HairC1
							{
								OFFSET 3.290300 -11.051193 1.062200
								CHANNELS 3 Xrotation Yrotation Zrotation
								End Site
								{
									OFFSET 0.000000 11.579437 0.000000
								}
							}
						}
					}
				}
				JOINT LeftShoulder
				{
					OFFSET 5.101800 15.108002 -2.763700
					CHANNELS 3 Xrotation Yrotation Zrotation
					JOINT LeftArm
					{
						OFFSET 9.825497 2.506317 -1.597400
						CHANNELS 3 Xrotation Yrotation Zrotation
						JOINT LeftForeArm
						{
							OFFSET 21.966244 0.000000 0.000000
							CHANNELS 3 Xrotation Yrotation Zrotation
							JOINT LeftHand
							{
								OFFSET 33.879036 0.000000 0.000000
								CHANNELS 3 Xrotation Yrotation Zrotation
								JOINT LeftHandThumb1
								{
									OFFSET 6.715286 -2.359680 3.363841
									CHANNELS 3 Xrotation Yrotation Zrotation
									JOINT LeftHandThumb2
									{
										OFFSET 2.507072 -1.447464 1.447461
										CHANNELS 3 Xrotation Yrotation Zrotation
										JOINT LeftHandThumb3
										{
											OFFSET 2.898338 -1.673355 1.673357
											CHANNELS 3 Xrotation Yrotation Zrotation
											End Site
											{
												OFFSET -0.295959 3.727692 -0.131651
											}
										}
									}
								}
								JOINT LeftHandIndex1
								{
									OFFSET 14.190811 -0.254547 3.840278
									CHANNELS 3 Xrotation Yrotation Zrotation
									JOINT LeftHandIndex2
									{
										OFFSET 3.551727 0.000000 -0.000000
										CHANNELS 3 Xrotation Yrotation Zrotation
										JOINT LeftHandIndex3
										{
											OFFSET 2.894196 0.000000 0.000000
											CHANNELS 3 Xrotation Yrotation Zrotation
											End Site
											{
												OFFSET -1.000603 2.690872 0.366626
											}
										}
									}
								}
								JOINT LeftHandMiddle1
								{
									OFFSET 13.776489 0.000000 0.000000
									CHANNELS 3 Xrotation Yrotation Zrotation
									JOINT LeftHandMiddle2
									{
										OFFSET 3.438232 0.000000 0.000000
										CHANNELS 3 Xrotation Yrotation Zrotation
										JOINT LeftHandMiddle3
										{
											OFFSET 3.691551 0.000000 0.000000
											CHANNELS 3 Xrotation Yrotation Zrotation
											End Site
											{
												OFFSET -1.082298 3.499527 0.457670
											}
										}
									}
								}
								JOINT LeftHandRing1
								{
									OFFSET 13.966164 -0.268127 -3.067488
									CHANNELS 3 Xrotation Yrotation Zrotation
									JOINT LeftHandRing2
									{
										OFFSET 3.162567 0.000000 0.000000
										CHANNELS 3 Xrotation Yrotation Zrotation
										JOINT LeftHandRing3
										{
											OFFSET 3.324348 0.000000 0.000000
											CHANNELS 3 Xrotation Yrotation Zrotation
											End Site
											{
												OFFSET -0.861900 3.184998 0.405154
											}
										}
									}
								}
								JOINT LeftHandPinky1
								{
									OFFSET 13.131393 -0.168503 -5.746925
									CHANNELS 3 Xrotation Yrotation Zrotation
									JOINT LeftHandPinky2
									{
										OFFSET 2.849182 0.000000 0.000000
										CHANNELS 3 Xrotation Yrotation Zrotation
										JOINT LeftHandPinky3
										{
											OFFSET 2.805038 0.000000 0.000000
											CHANNELS 3 Xrotation Yrotation Zrotation
											End Site
											{
												OFFSET -0.882500 2.642609 0.325652
											}
										}
									}
								}
							}
							JOINT Left_Sleeve
							{
								OFFSET 6.592125 -0.646545 0.805568
								CHANNELS 3 Xrotation Yrotation Zrotation
								End Site
								{
									OFFSET -0.000179 20.275787 -0.000000
								}
							}
						}
					}
				}
				JOINT RightShoulder
				{
					OFFSET -5.731700 15.108002 -2.763700
					CHANNELS 3 Xrotation Yrotation Zrotation
					JOINT RightArm
					{
						OFFSET -9.825497 2.506317 -1.597400
						CHANNELS 3 Xrotation Yrotation Zrotation
						JOINT RightForeArm
						{
							OFFSET -21.966242 0.000000 0.000000
							CHANNELS 3 Xrotation Yrotation Zrotation
							JOINT RightHand
							{
								OFFSET -33.879032 0.000000 0.000000
								CHANNELS 3 Xrotation Yrotation Zrotation
								JOINT RightHandThumb1
								{
									OFFSET -6.715286 -2.359680 3.363841
									CHANNELS 3 Xrotation Yrotation Zrotation
									JOINT RightHandThumb2
									{
										OFFSET -2.507072 -1.447464 1.447461
										CHANNELS 3 Xrotation Yrotation Zrotation
										JOINT RightHandThumb3
										{
											OFFSET -2.898338 -1.673355 1.673357
											CHANNELS 3 Xrotation Yrotation Zrotation
											End Site
											{
												OFFSET 0.295959 3.727692 -0.131651
											}
										}
									}
								}
								JOINT RightHandIndex1
								{
									OFFSET -14.190811 -0.254547 3.840278
									CHANNELS 3 Xrotation Yrotation Zrotation
									JOINT RightHandIndex2
									{
										OFFSET -3.551727 0.000000 -0.000000
										CHANNELS 3 Xrotation Yrotation Zrotation
										JOINT RightHandIndex3
										{
											OFFSET -2.894196 0.000000 0.000000
											CHANNELS 3 Xrotation Yrotation Zrotation
											End Site
											{
												OFFSET 1.000603 2.690872 0.366626
											}
										}
									}
								}
								JOINT RightHandMiddle1
								{
									OFFSET -13.776489 0.000000 0.000000
									CHANNELS 3 Xrotation Yrotation Zrotation
									JOINT RightHandMiddle2
									{
										OFFSET -3.438232 0.000000 0.000000
										CHANNELS 3 Xrotation Yrotation Zrotation
										JOINT RightHandMiddle3
										{
											OFFSET -3.691551 0.000000 0.000000
											CHANNELS 3 Xrotation Yrotation Zrotation
											End Site
											{
												OFFSET 1.082298 3.499527 0.457670
											}
										}
									}
								}
								JOINT RightHandRing1
								{
									OFFSET -13.966164 -0.268127 -3.067488
									CHANNELS 3 Xrotation Yrotation Zrotation
									JOINT RightHandRing2
									{
										OFFSET -3.162567 0.000000 0.000000
										CHANNELS 3 Xrotation Yrotation Zrotation
										JOINT RightHandRing3
										{
											OFFSET -3.324348 0.000000 0.000000
											CHANNELS 3 Xrotation Yrotation Zrotation
											End Site
											{
												OFFSET 0.861900 3.184998 0.405154
											}
										}
									}
								}
								JOINT RightHandPinky1
								{
									OFFSET -13.131393 -0.168503 -5.746925
									CHANNELS 3 Xrotation Yrotation Zrotation
									JOINT RightHandPinky2
									{
										OFFSET -2.849182 0.000000 0.000000
										CHANNELS 3 Xrotation Yrotation Zrotation
										JOINT RightHandPinky3
										{
											OFFSET -2.805038 0.000000 0.000000
											CHANNELS 3 Xrotation Yrotation Zrotation
											End Site
											{
												OFFSET 0.882500 2.642609 0.325652
											}
										}
									}
								}
							}
							JOINT Right_Sleeve
							{
								OFFSET -6.592125 -0.646545 0.805568
								CHANNELS 3 Xrotation Yrotation Zrotation
								End Site
								{
									OFFSET 0.000179 20.275787 -0.000000
								}
							}
						}
					}
				}
				JOINT Bind_Right_JacketString
				{
					OFFSET -3.534800 11.969597 7.200700
					CHANNELS 3 Xrotation Yrotation Zrotation
					JOINT Bind_Right_JacketString1
					{
						OFFSET -0.319900 -6.102600 2.794100
						CHANNELS 3 Xrotation Yrotation Zrotation
						End Site
						{
							OFFSET 0.000000 6.719452 0.000000
						}
					}
				}
				JOINT Bind_Left_JacketString
				{
					OFFSET 2.904800 11.969597 7.200700
					CHANNELS 3 Xrotation Yrotation Zrotation
					JOINT Bind_Left_JacketString1
					{
						OFFSET 0.364800 -5.904503 3.186800
						CHANNELS 3 Xrotation Yrotation Zrotation
						End Site
						{
							OFFSET 0.000000 6.719513 0.000000
						}
					}
				}
				JOINT HairE
				{
					OFFSET 5.915200 17.612701 -11.592200
					CHANNELS 3 Xrotation Yrotation Zrotation
					JOINT HairE1
					{
						OFFSET 0.289200 -7.171898 -1.284500
						CHANNELS 3 Xrotation Yrotation Zrotation
						End Site
						{
							OFFSET 0.000000 7.291756 0.000000
						}
					}
				}
				JOINT HairF
				{
					OFFSET -0.864800 17.612701 -11.592200
					CHANNELS 3 Xrotation Yrotation Zrotation
					JOINT HairF1
					{
						OFFSET 0.000000 -14.087097 -2.127501
						CHANNELS 3 Xrotation Yrotation Zrotation
						End Site
						{
							OFFSET 0.000000 14.246841 0.000000
						}
					}
				}
				JOINT HairG
				{
					OFFSET -8.087700 17.612701 -11.592200
					CHANNELS 3 Xrotation Yrotation Zrotation
					JOINT HairG1
					{
						OFFSET -0.293600 -6.081398 -0.910100
						CHANNELS 3 Xrotation Yrotation Zrotation
						End Site
						{
							OFFSET 0.000000 6.156120 0.000000
						}
					}
				}
			}
		}
	}
	JOINT Pouch
	{
		OFFSET 0.000000 4.394501 10.847300
		CHANNELS 3 Xrotation Yrotation Zrotation
		End Site
		{
			OFFSET 0.000000 21.880577 0.000000
		}
	}
	JOINT Bag
	{
		OFFSET -13.229000 4.813004 -0.593300
		CHANNELS 3 Xrotation Yrotation Zrotation
		End Site
		{
			OFFSET 0.000000 21.880577 0.000000
		}
	}
	JOINT OccupyGuyFacialAnim_Joint
	{
		OFFSET 1.000000 -70.206398 -1.655000
		CHANNELS 3 Xrotation Yrotation Zrotation
		End Site
		{
			OFFSET 0.000000 21.880577 0.000000
		}
	}
}
MOTION
Frames: 4
Frame Time: 0.033333
-2.348343 69.383232 8.584532 -1.743677 3.467899 -1.977662 0.000000 -0.000000 0.000000 -6.831161 12.634401 7.359434 27.505006 -5.609992 2.380956 -19.793835 0.939935 -3.735529 -0.000000 0.000000 -0.000000 0.000000 -0.000000 0.000000 -2.877438 -2.434077 5.404563 22.382299 -9.279358 -5.772344 -16.095117 -22.059551 5.217855 0.000000 -0.000000 -0.000000 -0.000001 -0.000000 0.000001 0.069974 1.085993 0.207838 -0.077253 0.565000 0.076792 -0.076675 0.565540 0.073511 4.721400 -1.770446 2.371473 -6.334193 -6.475091 -0.601525 0.000000 0.000000 0.000000 0.000000 0.000000 0.000000 0.000000 0.000000 0.000000 0.000000 0.000000 0.000000 0.000000 0.000000 -0.000000 0.000000 0.000000 0.000000 0.000000 0.000000 -0.000000 0.000000 0.000000 0.000000 0.000000 0.000000 0.000000 0.535806 3.344055 -8.787160 -9.312505 4.663032 -72.510026 0.000004 -0.200824 0.000017 47.033331 -1.985463 6.856740 -6.068578 5.211568 1.999966 17.691008 18.800309 1.035509 0.000000 -0.000000 -0.000001 -0.077120 1.997946 2.215826 0.175785 1.548938 -12.948214 -0.000001 0.000001 -0.000003 1.086439 4.369420 -18.363295 0.138675 1.377710 -11.495362 0.000003 0.000002 -0.000001 3.086723 6.920586 -31.747877 0.314291 2.060372 -17.344009 0.000003 0.000003 0.000001 5.519057 7.668766 -51.814928 0.598470 -1.261050 -24.361070 -0.000003 0.000001 -0.000001 0.000003 -0.000001 -0.000001 0.558542 5.467985 11.375094 2.126553 -8.343375 70.951213 -0.000004 8.607503 0.000020 44.329526 23.898188 -12.190830 -13.255410 -2.052940 -16.724977 13.864639 -21.362953 4.240243 -0.000003 -0.000001 0.000002 -1.157698 11.020052 6.570088 0.042619 -0.770196 6.333440 -0.000001 0.000000 0.000002 0.179973 -1.580110 12.012043 0.389872 -2.299758 19.240634 0.000001 0.000001 0.000001 1.767223 -6.656545 17.302609 0.802785 -3.248369 27.756494 0.000001 0.000000 0.000001 3.079325 -9.964448 18.898927 1.166696 -3.860361 33.621265 0.000001 0.000001 -0.000001 -0.000000 -0.000001 0.000000 -0.000000 -0.000001 -0.000000 -0.000000 -0.000000 -0.000000 -0.000000 -0.000001 -0.000000 -0.000000 -0.000001 -0.000000 -0.000000 -0.000001 -0.000000 -0.000000 -0.000000 -0.000000 -0.000000 -0.000001 -0.000000 -0.000000 -0.000001 -0.000000 -0.000000 -0.000001 -0.000000 -0.000000 -0.000000 -0.000000 0.000000 -0.000000 0.000000 0.000000 -0.000000 0.000000 0.000000 -0.000000 0.000000 
-2.317151 69.379280 8.607899 -1.707097 3.518699 -1.951834 0.000000 0.000000 0.000000 -6.839073 12.623991 7.311540 27.504448 -5.642199 2.364036 -19.814628 0.932276 -3.692968 0.000000 0.000000 0.000000 -0.000001 -0.000001 -0.000000 -2.900520 -2.453105 5.354752 22.409825 -9.281104 -5.780063 -16.115401 -22.103701 5.257193 -0.000000 0.000000 0.000000 -0.000000 -0.000000 -0.000000 0.087387 1.080617 0.202214 -0.068060 0.562156 0.074002 -0.067481 0.562665 0.070745 4.652111 -1.761535 2.343004 -6.279198 -6.433483 -0.632785 0.000000 0.000000 -0.000000 0.000000 0.000000 -0.000000 0.000000 0.000000 -0.000000 0.000000 0.000000 -0.000000 -0.000000 0.000000 0.000000 0.000000 0.000000 -0.000000 -0.000000 0.000000 0.000000 0.000000 0.000000 -0.000000 0.000000 0.000000 -0.000000 0.538128 3.334298 -8.825109 -9.295978 4.704823 -72.452167 -0.000002 -0.200586 0.000009 46.957817 -1.955599 6.872964 -6.073482 5.200295 2.042159 17.692857 18.808207 1.034327 -0.000001 -0.000002 -0.000002 -0.077222 2.001093 2.215384 0.175336 1.546960 -12.931332 0.000006 0.000000 -0.000002 1.090841 4.383710 -18.353716 0.138781 1.378228 -11.499705 0.000000 0.000002 0.000001 3.073347 6.898172 -31.757228 0.314541 2.061195 -17.351109 -0.000001 0.000001 -0.000002 5.522845 7.667257 -51.870639 0.598902 -1.260122 -24.369710 -0.000002 0.000001 0.000003 0.000001 -0.000000 -0.000000 0.558590 5.463354 11.376278 2.093988 -8.400808 70.934076 -0.000000 8.580364 0.000011 44.335321 23.860397 -12.145994 -13.254218 -2.065281 -16.691347 13.889349 -21.413673 4.250137 0.000000 0.000000 -0.000001 -1.150100 11.003729 6.539668 0.042499 -0.769100 6.324108 0.000003 -0.000002 0.000005 0.179549 -1.577962 12.021945 0.389716 -2.299371 19.237245 -0.000004 0.000001 -0.000001 1.766935 -6.651300 17.318766 0.801626 -3.246206 27.736363 0.000001 0.000000 0.000001 3.070499 -9.944463 18.887759 1.167432 -3.861489 33.632405 0.000002 -0.000001 0.000000 0.000000 0.000000 0.000001 -0.000000 -0.000001 0.000000 -0.000000 -0.000001 0.000000 -0.000000 -0.000001 0.000000 -0.000000 -0.000001 0.000000 -0.000000 -0.000001 0.000000 -0.000000 -0.000001 0.000000 -0.000000 -0.000001 0.000000 -0.000000 -0.000001 0.000000 -0.000000 -0.000001 0.000000 -0.000000 -0.000001 0.000000 0.000000 0.000000 0.000000 0.000000 0.000000 0.000000 0.000000 0.000000 0.000000 
-2.288306 69.376236 8.632638 -1.646148 3.558706 -1.923587 -0.000000 0.000000 0.000000 -6.858308 12.604444 7.253068 27.485977 -5.652045 2.351647 -19.827834 0.925838 -3.660938 0.000000 0.000001 0.000000 0.000000 0.000001 -0.000000 -2.947068 -2.483387 5.282610 22.439325 -9.285888 -5.758402 -16.144160 -22.100990 5.284340 0.000000 0.000000 0.000000 0.000000 -0.000000 0.000001 0.074298 1.089350 0.194547 -0.075225 0.566648 0.070949 -0.074665 0.567146 0.067654 4.654664 -1.747676 2.295944 -6.298259 -6.428396 -0.590244 -0.000000 0.000000 -0.000000 -0.000000 0.000000 -0.000000 -0.000000 0.000000 -0.000000 -0.000000 0.000000 -0.000000 -0.000000 0.000000 -0.000000 -0.000000 0.000000 -0.000000 -0.000000 0.000000 -0.000000 -0.000000 0.000000 -0.000000 -0.000000 0.000000 -0.000000 0.538640 3.325190 -8.832623 -9.268814 4.734506 -72.410360 0.000006 -0.200689 -0.000010 46.932023 -1.923550 6.864192 -6.066518 5.214497 2.001826 17.695154 18.817917 1.032882 0.000003 0.000002 0.000004 -0.075870 2.028452 2.157797 0.174049 1.541381 -12.883817 -0.000001 0.000001 -0.000002 1.089737 4.377403 -18.377929 0.138871 1.378691 -11.503687 -0.000000 -0.000001 0.000000 3.070839 6.888317 -31.804147 0.315429 2.064031 -17.375822 -0.000003 0.000000 0.000001 5.519457 7.661877 -51.905159 0.599088 -1.259704 -24.373371 -0.000003 -0.000002 0.000003 0.000001 -0.000000 0.000000 0.558967 5.430624 11.382688 2.098099 -8.385902 70.907909 0.000006 8.547429 -0.000037 44.341967 23.796608 -12.120761 -13.251854 -2.088363 -16.627848 13.916311 -21.468902 4.260982 0.000002 -0.000001 0.000002 -1.157223 10.967501 6.590532 0.042680 -0.770848 6.338732 -0.000002 0.000000 0.000004 0.179980 -1.579515 12.068302 0.389053 -2.297428 19.220333 0.000003 0.000000 0.000003 1.764861 -6.638451 17.342542 0.801861 -3.246603 27.740079 0.000002 0.000000 -0.000001 3.062840 -9.931871 18.866444 1.167975 -3.862285 33.640232 -0.000001 0.000000 0.000001 -0.000001 0.000001 -0.000000 0.000000 -0.000000 0.000000 0.000000 -0.000000 0.000000 0.000000 -0.000000 0.000000 0.000000 -0.000000 0.000000 0.000000 -0.000000 0.000000 0.000000 -0.000000 0.000000 0.000000 -0.000000 0.000000 0.000000 -0.000000 0.000000 0.000000 -0.000000 0.000000 0.000000 -0.000000 0.000000 -0.000000 0.000000 0.000000 -0.000000 0.000000 0.000000 -0.000000 0.000000 0.000000 
-2.250646 69.370316 8.670689 -1.597280 3.651874 -1.842247 -0.000000 -0.000000 0.000000 -6.825080 12.530089 7.104918 27.442498 -5.649040 2.368701 -19.838513 0.919867 -3.638593 -0.000000 -0.000000 0.000000 -0.000000 -0.000002 -0.000000 -2.994694 -2.573437 5.121547 22.542997 -9.298950 -5.696430 -16.231214 -22.062578 5.314488 -0.000000 0.000002 0.000000 0.000000 0.000000 -0.000001 0.062862 1.057063 0.172293 -0.082679 0.549788 0.060254 -0.082144 0.550230 0.057018 4.656074 -1.751878 2.256427 -6.354925 -6.454977 -0.697873 -0.000000 0.000000 -0.000000 -0.000000 0.000000 -0.000000 -0.000000 0.000000 -0.000000 -0.000000 0.000000 -0.000000 -0.000000 0.000000 -0.000000 -0.000000 0.000000 -0.000000 -0.000000 0.000000 -0.000000 -0.000000 0.000000 -0.000000 -0.000000 0.000000 -0.000000 0.538502 3.376306 -8.836612 -9.258047 4.790479 -72.381489 0.000007 -0.201758 -0.000009 46.939010 -1.926315 6.866603 -6.071765 5.202564 2.045276 17.700599 18.840985 1.029441 0.000003 -0.000000 -0.000004 -0.075499 2.015567 2.159491 0.177266 1.555392 -13.003229 0.000000 0.000000 -0.000000 1.096605 4.397659 -18.378275 0.138956 1.379102 -11.507108 0.000005 0.000002 -0.000001 3.067041 6.882503 -31.802518 0.315681 2.064830 -17.382620 -0.000000 0.000000 -0.000003 5.516839 7.662466 -51.872302 0.599884 -1.257948 -24.389386 0.000002 -0.000001 0.000004 -0.000000 0.000000 -0.000000 0.559052 5.441465 11.368481 2.114951 -8.391913 70.894625 -0.000001 8.513091 0.000023 44.397947 23.779290 -12.207209 -13.241709 -2.124115 -16.604852 13.952541 -21.543139 4.275602 0.000004 -0.000001 -0.000000 -1.159729 10.925742 6.621093 0.042972 -0.773548 6.360914 -0.000000 -0.000001 0.000002 0.184940 -1.603025 12.048881 0.389262 -2.298016 19.225461 0.000001 -0.000001 0.000001 1.766230 -6.638853 17.357090 0.801706 -3.246343 27.737543 -0.000004 0.000001 0.000000 3.079508 -9.935185 18.970739 1.169087 -3.863932 33.656652 -0.000001 0.000001 0.000001 -0.000000 0.000001 0.000000 -0.000000 0.000001 0.000000 -0.000000 0.000001 -0.000000 -0.000000 0.000001 -0.000000 -0.000000 0.000001 -0.000000 -0.000000 0.000001 0.000000 -0.000000 0.000001 0.000000 -0.000000 0.000001 -0.000000 -0.000000 0.000001 -0.000000 -0.000000 0.000001 0.000000 -0.000000 0.000001 0.000000 -0.000000 -0.000000 0.000000 -0.000000 -0.000000 0.000000 -0.000000 -0.000000 0.000000 
